<svg width="221" height="55" viewBox="0 0 221 55" fill="none" xmlns="http://www.w3.org/2000/svg">
<g clip-path="url(#clip0_24_421)">
<path d="M79.4315 10.0342C79.4315 13.2465 78.3142 14.6282 75.5502 14.6282C72.8334 14.6282 71.6572 13.1875 71.6572 10.0342C71.6572 6.88104 72.7981 5.46387 75.5502 5.46387C78.3142 5.46387 79.4315 6.88104 79.4315 10.0342ZM77.3615 10.0342C77.3615 7.79039 76.9028 7.24714 75.5502 7.24714C74.2094 7.24714 73.739 7.79039 73.739 10.0342C73.739 12.2781 74.2212 12.845 75.562 12.845C76.891 12.845 77.3615 12.2663 77.3615 10.0342ZM88.4394 8.64069C88.4394 10.5066 87.4514 11.5813 84.9933 11.5813H83.8172V14.4629H81.8295V5.60558H84.9933C87.4397 5.60558 88.4394 6.57398 88.4394 8.64069ZM86.3929 8.62888C86.3929 7.566 86.0165 7.27076 84.9933 7.27076H83.8172V9.98701H84.9933C85.9695 9.98701 86.3929 9.739 86.3929 8.62888ZM92.6722 12.7269H96.7298L96.6828 14.4629H90.6845V5.60558H96.5064L96.5417 7.36524H92.6722V9.12489H95.9301V10.7074H92.6722V12.7269ZM106.126 14.4629H104.738L101.315 9.63271L100.786 8.84146L100.763 8.85327L100.774 9.80986V14.4629H99.0102V5.60558H100.704L103.844 10.176L104.373 10.9672L104.397 10.9554L104.373 10.0106V5.60558H106.126V14.4629ZM123.036 9.99882C123.036 13.1993 121.707 14.4629 119.096 14.4629H115.768V5.60558H119.073C121.872 5.60558 123.036 6.94009 123.036 9.99882ZM120.954 9.98701C120.954 7.88487 120.449 7.38886 119.049 7.38886H117.755V12.6914H119.061C120.413 12.6914 120.954 12.2545 120.954 9.98701ZM130.644 14.4629L130.15 12.7387H126.951L126.457 14.4629H124.364L127.41 5.60558H129.774L132.856 14.4629H130.644ZM128.563 7.10542L128.316 8.0384L127.434 11.0735H129.68L128.833 8.0384L128.598 7.10542H128.563ZM140.064 7.40067H137.688V14.4629H135.689V7.40067H133.325L133.372 5.60558H140.017L140.064 7.40067ZM146.814 14.4629L146.32 12.7387H143.121L142.627 14.4629H140.533L143.579 5.60558H145.943L149.025 14.4629H146.814ZM144.732 7.10542L144.485 8.0384L143.603 11.0735H145.849L145.002 8.0384L144.767 7.10542H144.732ZM72.1159 30.8654V22.008H74.1389V30.8654H72.1159ZM84.0994 30.8654H82.7116L79.289 26.0352L78.7598 25.2439L78.7363 25.2557L78.748 26.2123V30.8654H76.9838V22.008H78.6775L81.8177 26.5784L82.347 27.3697L82.3705 27.3579L82.347 26.4131V22.008H84.0994V30.8654ZM92.6722 23.8031H88.8027V25.7163H92.0253L92.0018 27.4169H88.8027V30.8654H86.8268V22.008H92.6369L92.6722 23.8031ZM102.162 26.4367C102.162 29.649 101.045 31.0307 98.281 31.0307C95.5642 31.0307 94.388 29.5899 94.388 26.4367C94.388 23.2835 95.5289 21.8663 98.281 21.8663C101.045 21.8663 102.162 23.2835 102.162 26.4367ZM100.092 26.4367C100.092 24.1928 99.6336 23.6496 98.281 23.6496C96.9402 23.6496 96.4698 24.1928 96.4698 26.4367C96.4698 28.6806 96.952 29.2474 98.2928 29.2474C99.6218 29.2474 100.092 28.6687 100.092 26.4367ZM111.076 24.7597C111.076 25.9997 110.547 26.8737 109.594 27.1689L111.652 30.8654H109.335L107.795 27.5586H106.548V30.8654H104.56V22.008H107.795C109.982 22.008 111.076 22.8701 111.076 24.7597ZM109.006 24.8424C109.006 23.9448 108.677 23.6614 107.806 23.6614H106.548V26.0706H107.771C108.653 26.0706 109.006 25.799 109.006 24.8424ZM113.603 22.008H115.791L117.838 27.1807L118.167 28.0664H118.202L118.531 27.1807L120.59 22.008H122.777V30.8654H120.966V26.354L120.99 25.3974L120.954 25.3856L120.625 26.2832L118.814 30.8654H117.496L115.697 26.295L115.368 25.3974L115.344 25.4092L115.356 26.3658V30.8654H113.603V22.008ZM131.009 30.8654L130.515 29.1411H127.316L126.822 30.8654H124.728L127.775 22.008H130.139L133.22 30.8654H131.009ZM128.927 23.5079L128.68 24.4408L127.798 27.476H130.045L129.198 24.4408L128.963 23.5079H128.927ZM140.429 23.8031H138.053V30.8654H136.053V23.8031H133.689L133.736 22.008H140.381L140.429 23.8031ZM142.58 30.8654V22.008H144.603V30.8654H142.58ZM154.892 26.4367C154.892 29.649 153.775 31.0307 151.011 31.0307C148.294 31.0307 147.118 29.5899 147.118 26.4367C147.118 23.2835 148.259 21.8663 151.011 21.8663C153.775 21.8663 154.892 23.2835 154.892 26.4367ZM152.822 26.4367C152.822 24.1928 152.364 23.6496 151.011 23.6496C149.67 23.6496 149.2 24.1928 149.2 26.4367C149.2 28.6806 149.682 29.2474 151.023 29.2474C152.352 29.2474 152.822 28.6687 152.822 26.4367ZM164.406 30.8654H163.018L159.596 26.0352L159.066 25.2439L159.043 25.2557L159.055 26.2123V30.8654H157.29V22.008H158.984L162.124 26.5784L162.654 27.3697L162.677 27.3579L162.654 26.4131V22.008H164.406V30.8654ZM172.744 28.2082C172.744 29.956 171.532 31.0307 169.474 31.0307C168.451 31.0307 167.51 30.7827 166.745 30.3693L167.004 28.6569C167.78 29.0703 168.58 29.3065 169.45 29.3065C170.415 29.3065 170.838 28.9522 170.838 28.3381C170.838 26.9445 166.781 27.535 166.781 24.5708C166.781 23.0709 167.745 21.8545 169.98 21.8545C170.838 21.8545 171.767 22.0317 172.45 22.3151L172.203 23.9921C171.473 23.7559 170.744 23.6142 170.074 23.6142C168.98 23.6142 168.686 23.9921 168.686 24.4645C168.686 25.8462 172.744 25.2085 172.744 28.2082ZM180.587 28.2082C180.587 29.956 179.376 31.0307 177.317 31.0307C176.294 31.0307 175.353 30.7827 174.589 30.3693L174.848 28.6569C175.624 29.0703 176.424 29.3065 177.294 29.3065C178.258 29.3065 178.682 28.9522 178.682 28.3381C178.682 26.9445 174.624 27.535 174.624 24.5708C174.624 23.0709 175.588 21.8545 177.823 21.8545C178.682 21.8545 179.611 22.0317 180.293 22.3151L180.046 23.9921C179.317 23.7559 178.588 23.6142 177.917 23.6142C176.823 23.6142 176.529 23.9921 176.529 24.4645C176.529 25.8462 180.587 25.2085 180.587 28.2082ZM188.948 23.8031H186.572V30.8654H184.573V23.8031H182.209L182.256 22.008H188.901L188.948 23.8031ZM192.957 29.1293H197.015L196.968 30.8654H190.97V22.008H196.792L196.827 23.7677H192.957V25.5273H196.215V27.1099H192.957V29.1293ZM201.295 29.0703H204.929L204.882 30.8654H199.295V22.008H201.295V29.0703ZM209.021 29.0703H212.655L212.608 30.8654H207.021V22.008H209.021V29.0703ZM216.735 29.1293H220.793L220.746 30.8654H214.747V22.008H220.569L220.604 23.7677H216.735V25.5273H219.993V27.1099H216.735V29.1293ZM78.3494 44.7878C78.3494 46.3585 77.6202 47.2678 75.6914 47.2678H72.457V38.4105H75.515C77.1498 38.4105 77.9731 39.1073 77.9731 40.5835C77.9731 41.7408 77.4203 42.3549 76.6793 42.5675V42.5911C77.7143 42.8037 78.3494 43.4769 78.3494 44.7878ZM77.585 44.7287C77.585 43.5241 76.9498 42.9691 75.6561 42.9691H73.198V46.5828H75.7031C76.8793 46.5828 77.585 46.0986 77.585 44.7287ZM77.2321 40.7134C77.2321 39.5678 76.6793 39.1073 75.4914 39.1073H73.2097V42.3313H75.5855C76.6911 42.3313 77.2321 41.7881 77.2321 40.7134ZM82.3117 46.5356H86.9927L86.9575 47.2678H81.5472V38.4105H86.7458L86.781 39.1427H82.3117V42.2959H86.1812V42.9572H82.3117V46.5356ZM95.4008 40.8079C95.4008 42.2487 94.7422 43.0045 93.519 43.1462L95.9771 47.2678H95.0362L92.778 43.2879H90.7315V47.2678H89.9553V38.4105H92.8133C94.5893 38.4105 95.4008 39.1899 95.4008 40.8079ZM94.601 40.8433C94.601 39.6033 94.0483 39.1073 92.8133 39.1073H90.7315V42.6502H92.7427C94.0247 42.6502 94.601 42.1306 94.601 40.8433ZM99.4454 46.512H103.821L103.785 47.2678H98.6692V38.4105H99.4454V46.512ZM106.654 47.2678V38.4105H107.43V47.2678H106.654ZM117.626 47.2678H117.05L112.486 40.4181L111.969 39.6151L111.945 39.6269L111.957 40.5835V47.2678H111.251V38.4105H112.016L116.426 45.0948L116.944 45.8979L116.967 45.8861L116.944 44.9413L116.932 38.4105H117.626V47.2678Z" fill="#263C89"/>
<path d="M45.9831 31.2346C45.9831 18.8613 35.9113 8.83078 23.4871 8.83078C11.0629 8.83078 0.991089 18.8613 0.991089 31.2346C0.991089 43.6079 11.0629 53.6384 23.4871 53.6384C35.9113 53.6384 45.9831 43.6079 45.9831 31.2346Z" stroke="#263C89" stroke-width="1.30682"/>
<path d="M54.2347 6.52195C54.2347 3.41385 51.7047 0.894245 48.5838 0.894245C45.4629 0.894245 42.9329 3.41385 42.9329 6.52195C42.9329 9.63005 45.4629 12.1497 48.5838 12.1497C51.7047 12.1497 54.2347 9.63005 54.2347 6.52195Z" stroke="#263C89" stroke-width="1.30682"/>
</g>
<defs>
<clipPath id="clip0_24_421">
<rect width="221" height="55" fill="white"/>
</clipPath>
</defs>
</svg>
